<?xml version="1.0" encoding="UTF-8" standalone="no"?>
<!-- Created with Inkscape (http://www.inkscape.org/) -->
<svg
   xmlns:svg="http://www.w3.org/2000/svg"
   xmlns="http://www.w3.org/2000/svg"
   version="1.0"
   width="655.51178"
   height="393.12991"
   id="svg2811">
  <defs
     id="defs2813">
    <clipPath
       id="clp21">
      <path
         d="M 123.91,72.178 L 150.14,72.178 L 150.14,87.472 L 123.91,87.472 L 123.91,72.178 z "
         id="path592" />
    </clipPath>
    <clipPath
       id="clp9">
      <path
         d="M 413.96,49.857 L 445.72,49.857 L 445.72,58.576 L 413.96,58.576 L 413.96,49.857 z "
         id="path100" />
    </clipPath>
  </defs>
  <g
     transform="translate(-535.8271,-1054.646)"
     id="layer1">
    <g
       transform="translate(8.858292,10.62181)"
       style="fill:navy"
       id="g25396">
      <path
         d="M 720.37975,1227.0945 C 720.13669,1242.0488 710.65354,1255.1791 715.27359,1270.1334 C 723.29774,1271.5931 729.86289,1259.9203 736.18521,1266.4854 C 739.1032,1271.8833 729.13372,1280.3466 723.05468,1283.9925 C 718.67791,1286.1809 713.0852,1287.6405 708.46515,1284.7234 C 693.38929,1267.9451 706.27699,1245.3303 710.89703,1227.8232 C 713.57131,1219.434 720.13669,1219.0697 720.37975,1227.0945"
         style="fill:navy;fill-rule:nonzero;stroke:none;stroke-width:0.25;stroke-linecap:butt;stroke-linejoin:miter;stroke-miterlimit:10;stroke-dasharray:none"
         id="path578" />
      <path
         d="M 1113.5661,1243.3383 C 1106.7576,1245.2103 1099.2203,1244.7237 1091.9253,1245.3565 C 1089.7369,1246.5478 1089.2503,1249.1005 1089.2503,1251.4351 L 1090.4661,1252.5784 C 1095.5727,1253.1369 1101.4084,1251.6773 1105.785,1254.23 C 1107.0011,1256.4926 1106.7576,1259.1675 1105.5421,1261.3799 C 1099.7064,1264.6134 1091.9253,1262.5472 1085.3599,1263.6643 C 1082.9287,1266.3894 1081.956,1270.0593 1082.1991,1273.5131 L 1083.4146,1274.34 C 1090.7095,1273.8055 1097.518,1270.4738 1105.2991,1271.8833 C 1107.4872,1272.5902 1107.9738,1274.8266 1108.703,1276.5284 C 1107.9738,1283.0936 1100.1927,1284.7234 1095.5727,1287.9809 C 1089.0073,1290.754 1080.4968,1294.7162 1073.4453,1290.2173 C 1069.3114,1286.6674 1065.6644,1284.6492 1066.6369,1276.6746 C 1066.1505,1270.1815 1072.4726,1265.8527 1070.041,1259.0933 C 1069.0683,1257.1733 1070.284,1254.8628 1072.2291,1254.3282 C 1076.3633,1253.4293 1077.0925,1248.7361 1078.3084,1245.3063 C 1076.8494,1241.4641 1071.0136,1243.1419 1069.5549,1238.4248 C 1069.5549,1237.4277 1068.5822,1236.5048 1069.5549,1235.5076 L 1072.2291,1234.2422 C 1082.4421,1232.9047 1094.6,1228.9905 1108.703,1230.9367 C 1112.1073,1232.4683 1115.0253,1235.6538 1116.4841,1239.1557 C 1117.2134,1241.2699 1115.0253,1242.9237 1113.5661,1243.3383"
         style="fill:navy;fill-rule:nonzero;stroke:none;stroke-width:0.25;stroke-linecap:butt;stroke-linejoin:miter;stroke-miterlimit:10;stroke-dasharray:none"
         id="path580" />
      <path
         d="M 1057.8833,1282.4128 C 1055.4515,1284.0427 1052.5337,1286.0107 1049.1294,1284.6994 C 1039.6464,1277.2572 1035.7555,1265.7807 1029.6767,1256.1522 C 1027.9744,1255.7879 1027.9744,1257.8061 1027.7314,1258.8032 C 1026.2728,1268.1632 1028.2179,1278.1343 1024.5706,1286.5474 C 1023.3548,1288.3213 1021.1662,1288.8318 1019.2209,1288.1271 C 1014.1147,1286.0107 1014.1147,1279.8601 1013.3851,1275.167 C 1014.3578,1262.5472 1015.8168,1248.8561 1021.4095,1237.4539 C 1021.4095,1237.3557 1023.5979,1230.8385 1028.7041,1235.4095 C 1039.4029,1243.7746 1042.0779,1256.2984 1050.3453,1265.9509 C 1051.0745,1266.1952 1051.318,1265.1981 1051.561,1264.6374 C 1051.8041,1250.5842 1046.4549,1238.7411 1043.7799,1225.8552 C 1043.5371,1224.1774 1044.266,1222.4995 1045.7252,1221.8668 C 1055.2084,1218.0726 1056.6672,1232.5905 1060.0717,1238.7913 C 1064.6918,1251.2889 1069.5549,1271.4949 1057.8833,1282.4128"
         style="fill:navy;fill-rule:nonzero;stroke:none;stroke-width:0.25;stroke-linecap:butt;stroke-linejoin:miter;stroke-miterlimit:10;stroke-dasharray:none"
         id="path582" />
      <path
         d="M 1000.4979,1242.171 C 989.06941,1243.2881 976.66826,1242.8015 965.96939,1246.8379 C 965.72634,1248.0554 967.18512,1248.4198 967.67167,1248.7841 C 982.74709,1253.2089 1004.6314,1246.6198 1011.4398,1264.3952 C 1012.4125,1270.4498 1012.4125,1277.4775 1006.8198,1281.3917 C 997.58011,1288.5896 984.69242,1290.4377 973.26394,1287.202 C 966.21245,1284.6012 958.67463,1280.6368 956.00013,1273.1248 C 956.24319,1269.8651 956.7293,1266.6556 959.16118,1264.3472 C 966.94206,1258.4606 978.61359,1260.3828 987.61041,1262.5712 C 990.28513,1264.0788 994.17557,1263.8345 995.63478,1267.2163 C 994.17557,1271.4229 989.31246,1271.8833 985.66508,1272.3698 C 977.39787,1273.4411 971.5621,1265.6105 963.29468,1268.796 C 961.8359,1269.5487 961.8359,1271.2026 962.32201,1272.444 C 964.75389,1275.8477 969.13044,1275.167 973.02088,1275.6775 C 990.28513,1276.4302 992.47351,1274.9226 998.06622,1271.8833 C 999.76828,1270.9124 1001.9567,1266.7778 1000.7409,1265.1981 C 996.8505,1260.9654 991.01473,1260.8694 985.90857,1259.8723 C 976.18215,1258.0962 965.23979,1259.2155 956.48625,1256.03 C 954.29786,1254.206 952.59581,1251.7013 952.83886,1248.686 C 952.59581,1242.9477 956.9728,1237.672 964.26734,1234.7549 C 978.37054,1229.8916 997.33705,1227.9214 1011.4398,1233.5614 C 1013.3851,1235.0691 1012.6555,1237.0633 1011.4398,1238.595 C 1008.522,1241.4401 1004.6314,1241.8044 1000.4979,1242.171"
         style="fill:navy;fill-rule:nonzero;stroke:none;stroke-width:0.25;stroke-linecap:butt;stroke-linejoin:miter;stroke-miterlimit:10;stroke-dasharray:none"
         id="path584" />
      <path
         d="M 946.51698,1288.2253 C 944.0851,1290.4137 940.68121,1289.6587 937.76322,1288.6136 C 934.11584,1285.5241 935.0885,1280.2965 934.11584,1275.9197 C 934.11584,1262.2788 933.87235,1247.0823 937.51973,1233.4174 C 938.49239,1231.6654 940.92427,1231.0327 942.38305,1232.176 C 944.57165,1233.9018 945.78737,1236.6008 946.51698,1239.1797 C 947.48965,1254.7406 949.19126,1270.4018 947.97576,1286.3511"
         style="fill:navy;fill-rule:nonzero;stroke:none;stroke-width:0.25;stroke-linecap:butt;stroke-linejoin:miter;stroke-miterlimit:10;stroke-dasharray:none"
         id="path586" />
      <path
         d="M 962.07896,1206.0855 C 962.32201,1205.9634 962.56507,1205.8674 962.80856,1205.7452"
         style="fill:navy;fill-rule:nonzero;stroke:none;stroke-width:0.25;stroke-linecap:butt;stroke-linejoin:miter;stroke-miterlimit:10;stroke-dasharray:none"
         id="path588" />
      <g
         transform="matrix(24.31573,0,0,-24.31573,-2477.135,3181.602)"
         style="fill:navy;fill-rule:nonzero;stroke:none;stroke-width:0.25;stroke-linecap:butt;stroke-linejoin:miter;stroke-miterlimit:10;stroke-dasharray:none"
         clip-path="url(#clp21)"
         id="g594">
        <path
           d="M 141.47,81.258 C 141.6,81.361 141.73,81.518 141.73,81.683 C 141.71,81.725 141.69,81.776 141.65,81.795 C 141.27,81.867 140.99,81.56 140.73,81.317 C 140.68,81.226 140.54,81.146 140.58,81.045 C 140.85,80.975 141.11,81.089 141.34,81.186 C 141.39,81.206 141.41,81.216 141.44,81.244 L 141.47,81.258 z M 140.2,81.607 C 140.14,81.539 140.08,81.441 140.09,81.353 L 140.13,81.352 C 140.26,81.506 140.51,81.557 140.53,81.817 L 140.39,81.765 C 140.32,81.714 140.26,81.676 140.2,81.607 M 140.03,81.912 C 140.39,82.276 140.83,82.439 141.35,82.352 C 141.54,82.307 141.65,82.089 141.86,82.089 C 141.98,82.032 142.07,81.91 142.09,81.786 C 142.09,81.48 141.93,81.239 141.69,81.037 C 141.49,80.865 141.23,80.715 141.03,80.627 C 140.77,80.535 140.51,80.591 140.25,80.601 C 140.21,80.547 140.17,80.483 140.11,80.448 C 140,80.427 139.95,80.52 139.9,80.594 C 139.84,80.756 139.88,80.916 139.76,81.052 C 139.66,81.251 139.67,81.515 139.86,81.73 C 139.9,81.789 139.98,81.86 140.03,81.912"
           style="fill:navy;fill-rule:nonzero;stroke:none"
           id="path596" />
        <path
           d="M 149.63,78.874 C 149.54,78.737 149.43,78.644 149.28,78.554 C 149.14,78.497 149.01,78.404 148.85,78.43 C 148.84,78.568 148.97,78.666 149.03,78.789 C 149.22,79.052 149.38,79.352 149.66,79.562 C 149.73,79.579 149.74,79.496 149.77,79.459 C 149.8,79.252 149.73,79.037 149.63,78.874 M 149.89,78.494 C 149.93,78.55 149.99,78.669 150.02,78.728 C 150.2,79.078 150.18,79.579 149.94,79.896 C 149.83,80.013 149.68,80.122 149.51,80.047 C 149.06,79.799 148.68,79.361 148.35,78.95 L 148.22,78.851 L 148.2,78.875 C 148.23,79.237 148.42,79.532 148.61,79.826 C 148.64,79.973 148.78,80.131 148.67,80.285 C 148.56,80.31 148.5,80.196 148.43,80.147 C 147.96,79.56 147.52,78.962 147.89,78.229 C 147.72,77.791 147.58,77.335 147.49,76.859 C 147.45,76.588 147.34,76.264 147.51,76.022 C 147.62,75.882 147.77,75.769 147.93,75.816 C 148.05,76.438 148.21,77.042 148.41,77.635 L 148.49,77.743 C 148.69,77.749 148.89,77.772 149.07,77.851 C 149.27,77.944 149.73,78.245 149.89,78.494"
           style="fill:navy;fill-rule:nonzero;stroke:none"
           id="path598" />
        <path
           d="M 134.73,78.775 C 134.84,78.694 134.97,78.608 135.08,78.542 C 135.27,78.455 135.45,78.309 135.68,78.309 C 135.76,78.698 135.68,79.131 135.73,79.521 L 135.7,79.576 C 135.26,79.59 134.84,79.484 134.44,79.358 C 134.37,79.332 134.29,79.251 134.34,79.163 C 134.45,79.012 134.58,78.892 134.73,78.775 M 134.57,78.593 C 134.46,78.701 134.36,78.808 134.26,78.935 C 134.16,79.061 134.07,79.205 134.13,79.378 C 134.31,79.729 134.69,79.826 135,79.967 L 135.72,80.15 C 135.83,80.516 135.76,80.99 135.94,81.335 C 135.98,81.367 136.06,81.365 136.09,81.333 C 136.41,81.06 136.29,80.621 136.39,80.256 C 136.6,80.151 136.89,80.218 137.13,80.177 C 137.66,80.093 138.32,79.978 138.47,79.387 C 138.47,79.245 138.41,79.118 138.3,79.019 C 138.2,78.943 138.1,78.853 137.97,78.86 C 137.87,78.871 137.77,78.882 137.69,78.944 C 137.73,79.081 137.94,79.141 137.94,79.302 C 137.77,79.466 137.51,79.439 137.31,79.521 C 137.02,79.564 136.71,79.653 136.41,79.594 L 136.37,79.554 C 136.35,79.067 136.37,78.608 136.4,78.143 C 136.41,78.083 136.48,78.045 136.53,78.03 C 137.46,77.924 138.49,77.945 139.16,78.657 C 139.45,79.014 139.43,79.584 139.22,79.97 C 138.52,81.187 137.24,81.741 136.04,82.151 C 135.28,82.369 134.36,82.465 133.54,82.335 C 133.52,82.317 133.49,82.317 133.47,82.29 C 133.52,82.211 133.67,82.227 133.66,82.098 C 133.51,81.986 133.28,82.041 133.13,82.109 C 133.04,82.239 133.16,82.388 133.23,82.506 C 133.48,82.749 133.85,82.779 134.19,82.827 C 135.41,82.954 136.55,82.587 137.58,82.12 C 138.63,81.649 139.78,80.67 140.07,79.512 C 140.11,78.863 139.81,78.304 139.27,77.938 C 138.47,77.403 137.38,77.37 136.42,77.536 C 136.35,77.441 136.35,77.303 136.23,77.251 C 136.11,77.262 135.96,77.183 135.86,77.29 C 135.69,77.468 135.84,77.805 135.57,77.902 C 135.22,78.082 134.87,78.312 134.57,78.593"
           style="fill:navy;fill-rule:nonzero;stroke:none"
           id="path600" />
        <path
           d="M 129.95,79.12 C 130.02,79.101 130.08,79.12 130.06,79.195 C 130.04,79.27 130.01,79.401 129.99,79.476 C 129.97,79.551 129.99,79.701 129.89,79.551 C 129.8,79.401 129.72,79.176 129.72,79.176 C 129.72,79.176 129.87,79.138 129.95,79.12 M 126.27,80.638 C 126.16,80.413 125.99,80.076 125.99,79.813 C 125.99,79.551 125.96,79.251 125.99,79.101 C 126.03,78.951 126.2,79.007 126.31,79.27 C 126.42,79.532 126.52,79.57 126.59,79.982 C 126.67,80.39 126.67,80.47 126.57,80.77 C 126.48,81.058 126.27,80.638 126.27,80.638 M 128.98,80.275 C 129.06,79.825 128.7,79.405 128.88,79.09 L 128.98,79.09 C 129.25,79.615 129.58,80.17 129.96,80.635 C 130.24,80.9 130.29,80.245 130.39,80.02 C 130.54,79.345 130.72,77.891 130.57,77.86 C 130.29,77.582 130.19,77.865 130.17,78.19 L 130.14,78.55 L 129.49,78.58 C 129.21,78.355 129.4,77.62 128.88,77.785 C 128.44,78.175 129.13,78.61 128.73,78.97 C 128.34,78.235 127.65,77.53 126.79,77.47 C 126.3,77.44 125.86,77.71 125.61,78.115 C 125.29,78.01 124.87,77.95 124.56,78.07 C 124.08,78.332 123.88,78.955 123.91,79.555 C 124.03,80.785 124.63,82.09 125.85,82.57 C 126.07,82.588 125.88,82.45 125.89,82.39 C 124.78,81.4 124.26,79.945 124.66,78.55 C 124.86,78.325 125.17,78.205 125.43,78.37 C 125.38,79.225 125.24,80.451 126.05,81.088 C 126.37,81.407 126.57,81.388 126.79,81.175 C 127.12,80.98 127.17,80.59 127.18,80.23 C 127.14,79.51 126.69,78.955 126.15,78.43 C 126.21,78.235 126.42,78.1 126.61,78.04 C 127.23,77.995 127.62,78.52 127.95,78.97 C 128.46,80.155 128.55,81.655 127.72,82.72 C 127.63,82.87 127.23,83.095 127.44,83.155 C 128.55,82.63 129.01,81.46 128.98,80.275"
           style="fill:navy;fill-rule:nonzero;stroke:none"
           id="path602" />
      </g>
      <path
         d="M 769.98409,1230.6203 C 767.55243,1230.6203 766.57977,1230.8385 763.90527,1232.9047 C 761.47361,1234.9491 760.744,1237.2335 762.68933,1237.2335 C 764.63444,1237.2335 767.55243,1236.5528 769.01143,1235.1673 C 770.7137,1233.8058 771.19982,1233.8058 771.68637,1232.2 C 772.41597,1230.6203 769.98409,1230.6203 769.98409,1230.6203 M 735.4556,1229.2109 C 740.07587,1233.2211 746.39753,1235.776 752.23374,1234.6567 C 757.58295,1228.1156 764.14833,1221.9148 772.90209,1225.9272 C 778.98091,1228.1156 780.92602,1234.6567 779.22441,1241.6103 C 775.57681,1255.4715 753.69251,1241.9506 756.61051,1259.8483 L 756.61051,1301.0632 C 752.23374,1306.5593 748.82941,1303.616 746.64103,1301.0632 C 734.2401,1287.202 740.56176,1263.1297 745.18203,1247.811 C 739.1032,1243.4343 729.86289,1240.1528 727.67473,1231.7636 C 725.97246,1225.5388 734.72622,1220.4551 735.4556,1229.2109"
         style="fill:navy;fill-rule:nonzero;stroke:none;stroke-width:0.25;stroke-linecap:butt;stroke-linejoin:miter;stroke-miterlimit:10;stroke-dasharray:none"
         id="path604" />
      <path
         d="M 832.23264,1058.6346 L 833.20531,1077.8675 L 830.77343,1077.8675 C 830.28731,1074.4879 829.80098,1072.0573 829.07137,1070.6216 C 827.85565,1068.2631 826.15338,1066.5372 823.96521,1065.442 C 822.01989,1064.3249 819.34495,1063.7641 815.94106,1063.7641 L 804.51258,1063.7641 L 804.51258,1126.5727 C 804.51258,1131.6063 804.9987,1134.7437 805.97136,1136.007 C 807.67363,1137.6849 809.8618,1138.5358 813.02329,1138.5358 L 815.94106,1138.5358 L 815.94106,1140.8223 L 780.92602,1140.8223 L 780.92602,1138.5358 L 783.84401,1138.5358 C 787.4914,1138.5358 789.92328,1137.4907 791.38184,1135.4005 C 792.3545,1134.111 792.84105,1131.1677 792.84105,1126.5727 L 792.84105,1063.7641 L 782.87135,1063.7641 C 778.98091,1063.7641 776.30641,1064.0565 774.8472,1064.6172 C 772.65903,1065.394 770.95676,1066.8536 769.25449,1069.042 C 767.79593,1071.2304 767.06632,1074.1715 766.82326,1077.8675 L 764.39138,1077.8675 L 765.12099,1058.6346"
         style="fill:navy;fill-rule:nonzero;stroke:none;stroke-width:0.25;stroke-linecap:butt;stroke-linejoin:miter;stroke-miterlimit:10;stroke-dasharray:none"
         id="path606" />
      <path
         d="M 856.54838,1054.6462 L 856.54838,1095.2546 C 861.16842,1090.3433 864.57231,1087.1818 867.24725,1085.7963 C 869.92196,1084.4087 872.5969,1083.704 875.02834,1083.704 C 878.18961,1083.704 880.86411,1084.5789 883.29577,1086.3309 C 885.48416,1088.0567 887.18621,1090.7797 888.15887,1094.4997 C 889.13154,1097.0786 889.37459,1101.7958 889.37459,1108.6511 L 889.37459,1128.2746 C 889.37459,1131.8004 889.61765,1134.207 890.34726,1135.4965 C 890.59032,1136.4696 891.31992,1137.2485 892.29237,1137.807 C 893.26503,1138.3656 894.9673,1138.658 897.64202,1138.658 L 897.64202,1140.8223 L 870.40808,1140.8223 L 870.40808,1138.658 L 871.62424,1138.658 C 874.29917,1138.658 876.00079,1138.2696 876.97345,1137.4667 C 878.18961,1136.6878 878.67572,1135.5205 879.16227,1133.9888 C 879.40533,1133.3321 879.40533,1131.4361 879.40533,1128.2746 L 879.40533,1108.6511 C 879.40533,1102.5965 879.16227,1098.6103 878.43267,1096.7121 C 877.70306,1094.8161 876.7304,1093.3826 875.51467,1092.4335 C 874.05568,1091.4844 872.35341,1090.9978 870.40808,1090.9978 C 868.46297,1090.9978 866.51764,1091.5346 864.32925,1092.5797 C 862.14109,1093.6488 859.46615,1095.7652 856.54838,1098.9507 L 856.54838,1128.2746 C 856.54838,1132.0928 856.79143,1134.4514 857.27798,1135.3743 C 857.52104,1136.2994 858.49349,1137.0783 859.46615,1137.7089 C 860.68187,1138.3416 862.6272,1138.658 865.54497,1138.658 L 865.54497,1140.8223 L 838.06841,1140.8223 L 838.06841,1138.658 C 840.49985,1138.658 842.44496,1138.2696 843.90418,1137.5147 C 844.63378,1137.1023 845.36296,1136.3234 845.84951,1135.2041 C 846.33562,1134.063 846.57911,1131.7524 846.57911,1128.2746 L 846.57911,1078.0137 C 846.57911,1071.6929 846.33562,1067.7765 846.09256,1066.3191 C 845.84951,1064.8834 845.36296,1063.8863 844.63378,1063.3518 C 844.14723,1062.8412 843.17457,1062.5728 842.20191,1062.5728 C 841.22946,1062.5728 840.01374,1062.8892 838.06841,1063.5459 L 837.09575,1061.3816 L 853.87344,1054.6462"
         style="fill:navy;fill-rule:nonzero;stroke:none;stroke-width:0.25;stroke-linecap:butt;stroke-linejoin:miter;stroke-miterlimit:10;stroke-dasharray:none"
         id="path608" />
      <path
         d="M 911.50194,1102.7427 L 937.27667,1102.7427 C 937.03361,1099.2168 936.54728,1096.7383 936.06117,1095.2786 C 935.0885,1093.0422 933.38623,1091.2662 931.4409,1089.9767 C 929.49579,1088.6895 927.30741,1088.0567 925.11881,1088.0567 C 921.7147,1088.0567 918.79692,1089.3462 916.12199,1091.9469 C 913.44727,1094.5237 911.98849,1098.1237 911.50194,1102.7427 M 911.50194,1106.2925 C 911.50194,1114.4875 913.44727,1120.9327 917.5812,1125.5996 C 921.47164,1130.2928 926.33474,1132.6034 931.68396,1132.6034 C 935.57462,1132.6034 938.49239,1131.6303 941.41039,1129.66 C 944.0851,1127.692 946.27349,1124.2622 947.97576,1119.3989 L 949.92087,1120.5901 C 948.94821,1126.1604 946.51698,1131.2179 942.62633,1135.7408 C 938.49239,1140.2616 933.38623,1142.5242 927.30741,1142.5242 C 920.49898,1142.5242 914.90627,1139.9474 910.04316,1134.7437 C 905.42312,1129.564 902.99146,1122.6083 902.99146,1113.8548 C 902.99146,1104.3725 905.42312,1096.9805 910.28622,1091.6808 C 915.14932,1086.3789 921.22815,1083.704 928.52313,1083.704 C 934.84545,1083.704 939.95161,1085.7702 943.84205,1089.8567 C 947.97576,1093.9651 949.92087,1099.4372 949.92087,1106.2925"
         style="fill:navy;fill-rule:nonzero;stroke:none;stroke-width:0.25;stroke-linecap:butt;stroke-linejoin:miter;stroke-miterlimit:10;stroke-dasharray:none"
         id="path610" />
      <path
         d="M 691.20091,1315.7492 L 692.90318,1343.6636 L 691.20091,1343.6636 C 688.76968,1335.3006 685.12208,1329.27 680.50204,1325.598 C 675.88199,1321.926 670.28928,1320.0779 663.72391,1320.0779 C 658.37469,1320.0779 653.51159,1321.4634 649.1346,1324.2365 C 644.51455,1326.9835 641.11045,1331.4082 638.67879,1337.4388 C 636.24734,1343.4935 634.78813,1351.0317 634.78813,1360.0296 C 634.78813,1367.4457 636.00429,1373.8887 638.43573,1379.3345 C 640.86739,1384.7826 644.2715,1388.9652 649.1346,1391.8583 C 653.9977,1394.7754 659.34736,1396.2111 665.42618,1396.2111 C 670.77583,1396.2111 675.39588,1395.0918 679.52937,1392.8074 C 683.66309,1390.5208 688.04008,1385.9979 692.90318,1379.2385 L 694.84851,1380.4778 C 690.7148,1387.7739 685.85126,1393.1216 680.50204,1396.5034 C 674.90933,1399.8831 668.34395,1401.5849 660.80613,1401.5849 C 647.18927,1401.5849 636.73346,1396.5274 629.43891,1386.4364 C 623.8462,1378.9462 620.92843,1370.0944 620.92843,1359.9314 C 620.92843,1351.7364 622.87354,1344.2244 626.52114,1337.3428 C 630.16852,1330.4853 635.27468,1325.1835 641.59656,1321.4154 C 647.91888,1317.6474 654.97037,1315.7492 662.75124,1315.7492 C 668.58745,1315.7492 674.42321,1317.2088 680.25898,1320.1019 C 681.96082,1321.0009 683.17697,1321.4394 683.90615,1321.4394 C 684.87859,1321.4394 685.85126,1321.075 686.58086,1320.2961 C 687.79702,1319.203 688.52619,1317.6954 688.76968,1315.7492"
         style="fill:navy;fill-rule:nonzero;stroke:none;stroke-width:0.25;stroke-linecap:butt;stroke-linejoin:miter;stroke-miterlimit:10;stroke-dasharray:none"
         id="path612" />
      <path
         d="M 728.40433,1346.6309 C 726.21551,1346.6309 724.02713,1347.2637 721.83896,1348.551 C 719.65057,1349.8164 717.9483,1352.0288 716.7328,1355.2143 C 715.27359,1358.3998 714.54398,1362.5082 714.54398,1367.4937 C 714.54398,1375.5665 716.24625,1382.52 719.40708,1388.3564 C 722.56857,1394.2169 726.94512,1397.134 732.05172,1397.134 C 735.94216,1397.134 739.34626,1395.5063 741.77792,1392.2968 C 744.45242,1389.0612 745.66858,1383.5171 745.66858,1375.6647 C 745.66858,1365.8159 743.47976,1358.0834 739.34626,1352.4412 C 736.42827,1348.575 732.78089,1346.6309 728.40433,1346.6309 M 730.10639,1342.6425 C 738.61665,1342.6425 745.42509,1345.828 750.28863,1352.223 C 754.66518,1357.671 756.85356,1363.9198 756.85356,1370.9955 C 756.85356,1375.9549 755.63784,1380.9884 753.44946,1386.0721 C 751.0178,1391.1776 747.61369,1394.9958 743.47976,1397.5725 C 739.34626,1400.1733 734.72622,1401.4628 729.61984,1401.4628 C 721.10935,1401.4628 714.54398,1398.1311 709.68088,1391.4699 C 705.30432,1385.8517 703.35899,1379.5549 703.35899,1372.5752 C 703.35899,1367.4937 704.57472,1362.4362 707.24943,1357.4027 C 709.68088,1352.3692 712.84214,1348.6491 717.21891,1346.2426 C 721.10935,1343.8578 725.48634,1342.6425 730.10639,1342.6425"
         style="fill:navy;fill-rule:nonzero;stroke:none;stroke-width:0.25;stroke-linecap:butt;stroke-linejoin:miter;stroke-miterlimit:10;stroke-dasharray:none"
         id="path614" />
      <path
         d="M 781.41257,1354.4856 C 785.54607,1350.423 787.97795,1348.1146 788.70712,1347.5059 C 790.40939,1345.9742 792.3545,1344.7829 794.54332,1343.932 C 796.48843,1343.0811 798.67682,1342.6425 800.62215,1342.6425 C 804.02603,1342.6425 807.18752,1343.6636 809.61874,1345.6818 C 812.05062,1347.7 813.75268,1350.6433 814.72534,1354.4856 C 818.85905,1349.6222 822.26294,1346.4368 825.18072,1344.9291 C 828.09871,1343.3975 831.01649,1342.6425 833.93491,1342.6425 C 836.85269,1342.6425 839.52719,1343.3975 841.95885,1344.9291 C 844.14723,1346.4368 846.09256,1348.9175 847.30807,1352.3452 C 848.28073,1354.6797 848.52422,1358.3518 848.52422,1363.3591 L 848.52422,1387.2132 C 848.52422,1390.691 849.01034,1393.0736 849.49689,1394.3631 C 849.73994,1395.262 850.46955,1396.0169 851.68527,1396.6474 C 852.65794,1397.2802 854.35999,1397.5725 856.79143,1397.5725 L 856.79143,1399.7609 L 829.55793,1399.7609 L 829.55793,1397.5725 L 830.77343,1397.5725 C 833.20531,1397.5725 834.90758,1397.11 836.36614,1396.1871 C 837.3388,1395.5543 838.06841,1394.5092 838.31147,1393.0976 C 838.55452,1392.4169 838.55452,1390.4488 838.55452,1387.2132 L 838.55452,1363.3853 C 838.55452,1358.8623 838.06841,1355.6768 836.85269,1353.8048 C 835.39369,1351.2259 832.96225,1349.9386 829.31487,1349.9386 C 827.36954,1349.9386 825.18072,1350.4732 822.99255,1351.5423 C 820.80417,1352.6135 818.12945,1354.6056 814.9684,1357.5009 L 814.9684,1358.1816 L 815.21145,1360.7824 L 815.21145,1387.2132 C 815.21145,1391.0074 815.45451,1393.39 815.69801,1394.3151 C 816.18412,1395.238 816.91373,1396.0169 818.12945,1396.6474 C 819.34495,1397.2802 821.29028,1397.5725 824.20827,1397.5725 L 824.20827,1399.7609 L 796.0021,1399.7609 L 796.0021,1397.5725 C 799.16293,1397.5725 801.35175,1397.2322 802.3242,1396.5034 C 803.53992,1395.7725 804.26953,1394.6794 804.75564,1393.2198 C 804.9987,1392.539 805.24219,1390.5208 805.24219,1387.2132 L 805.24219,1363.3853 C 805.24219,1358.8623 804.51258,1355.6027 803.05337,1353.6085 C 801.35175,1351.0077 798.91987,1349.7182 795.75904,1349.7182 C 793.57066,1349.7182 791.38184,1350.303 789.19367,1351.4703 C 785.78913,1353.2681 783.3579,1355.2623 781.41257,1357.5009 L 781.41257,1387.2132 C 781.41257,1390.8612 781.89869,1393.2198 782.38524,1394.3151 C 782.87135,1395.4082 783.60096,1396.2111 784.57362,1396.7696 C 785.54607,1397.3042 787.4914,1397.5725 790.65288,1397.5725 L 790.65288,1399.7609 L 763.17566,1399.7609 L 763.17566,1397.5725 C 765.60711,1397.5725 767.30938,1397.3042 768.28204,1396.7696 C 769.49798,1396.2111 770.22715,1395.3602 770.7137,1394.1689 C 771.19982,1392.9776 771.44331,1390.643 771.44331,1387.2132 L 771.44331,1366.01 C 771.44331,1359.8834 771.19982,1355.943 770.95676,1354.1452 C 770.7137,1352.8077 770.22715,1351.8826 769.74104,1351.3961 C 769.01143,1350.8855 768.28204,1350.6193 767.06632,1350.6193 C 766.09366,1350.6193 764.63444,1350.9357 763.17566,1351.5423 L 762.20322,1349.3779 L 778.98091,1342.6425 L 781.41257,1342.6425"
         style="fill:navy;fill-rule:nonzero;stroke:none;stroke-width:0.25;stroke-linecap:butt;stroke-linejoin:miter;stroke-miterlimit:10;stroke-dasharray:none"
         id="path616" />
      <path
         d="M 876.97345,1359.3227 L 876.97345,1380.0895 C 876.97345,1384.5884 876.97345,1387.5295 877.46,1388.9412 C 877.94612,1391.2997 879.40533,1393.366 881.5935,1395.1398 C 883.78188,1396.9158 886.45682,1397.8147 889.86114,1397.8147 C 893.75158,1397.8147 897.15569,1396.2351 899.58735,1393.0736 C 902.99146,1388.9412 904.45045,1383.1528 904.45045,1375.6647 C 904.45045,1367.1533 902.7484,1360.6122 899.1008,1356.0412 C 896.42652,1352.8797 893.26503,1351.3001 889.86114,1351.3001 C 887.91582,1351.3001 885.97071,1351.7866 884.02538,1352.7575 C 882.56616,1353.4885 880.13494,1355.6768 876.97345,1359.3227 M 857.52104,1349.5982 L 874.54223,1342.8607 L 876.97345,1342.8607 L 876.97345,1355.7488 C 879.64839,1350.8855 882.56616,1347.5059 885.48416,1345.5618 C 888.40193,1343.6156 891.31992,1342.6425 894.48119,1342.6425 C 900.07346,1342.6425 904.93657,1344.8309 908.58417,1349.1837 C 913.20421,1354.5096 915.39238,1361.4631 915.39238,1370.0224 C 915.39238,1379.6029 912.71766,1387.5055 907.12539,1393.7783 C 902.50534,1398.91 896.91263,1401.4628 890.1042,1401.4628 C 887.18621,1401.4628 884.51149,1401.0242 882.32311,1400.1733 C 880.62105,1399.5907 878.91878,1398.3515 876.97345,1396.5514 L 876.97345,1413.4258 C 876.97345,1417.268 876.97345,1419.7008 877.46,1420.7459 C 877.94612,1421.791 878.67572,1422.6179 879.89145,1423.2244 C 881.10738,1423.8332 883.05271,1424.1495 886.21376,1424.1495 L 886.21376,1426.3139 L 857.27798,1426.3139 L 857.27798,1424.1495 L 858.73654,1424.1495 C 860.92537,1424.1735 862.87069,1423.7612 864.32925,1422.8601 C 865.05886,1422.4237 865.78847,1421.6928 866.27458,1420.6957 C 866.51764,1419.7008 866.76113,1417.1458 866.76113,1413.0854 L 866.76113,1360.418 C 866.76113,1356.8441 866.51764,1354.5576 866.27458,1353.5845 C 866.03153,1352.6375 865.54497,1351.9066 864.8158,1351.4201 C 864.0862,1350.9357 863.11375,1350.6913 861.89803,1350.6913 C 860.92537,1350.6913 859.70921,1350.9837 858.25065,1351.5423"
         style="fill:navy;fill-rule:nonzero;stroke:none;stroke-width:0.25;stroke-linecap:butt;stroke-linejoin:miter;stroke-miterlimit:10;stroke-dasharray:none"
         id="path618" />
      <path
         d="M 954.78397,1387.7739 L 954.78397,1366.6908 C 948.70515,1369.1235 944.81471,1370.8254 942.86938,1371.8225 C 939.70855,1373.5963 937.51973,1375.4683 936.06117,1377.3905 C 934.84545,1379.3345 934.11584,1381.4269 934.11584,1383.7375 C 934.11584,1386.6306 934.84545,1389.0372 936.79078,1390.9594 C 938.49239,1392.8794 940.43772,1393.8285 942.62633,1393.8285 C 945.78737,1393.8285 949.92087,1391.8103 954.78397,1387.7739 M 954.78397,1391.7121 C 949.19126,1396.1369 945.54432,1398.6918 944.0851,1399.3726 C 941.89694,1400.3937 939.46506,1400.8802 937.03361,1400.8802 C 933.38623,1400.8802 930.2254,1399.5907 927.55047,1396.9638 C 925.11881,1394.3391 923.90308,1390.8852 923.90308,1386.6306 C 923.90308,1383.9317 924.63269,1381.5971 925.60536,1379.6029 C 927.30741,1376.88 930.2254,1374.301 934.3589,1371.8705 C 938.49239,1369.4639 945.30082,1366.5206 954.78397,1363.0449 L 954.78397,1360.8565 C 954.78397,1355.2863 953.81153,1351.4703 952.10926,1349.4019 C 950.40742,1347.3357 947.97576,1346.2906 944.57165,1346.2906 C 941.89694,1346.2906 939.95161,1346.9953 938.49239,1348.3568 C 937.03361,1349.7422 936.30423,1351.3241 936.30423,1353.0979 L 936.30423,1356.6499 C 936.30423,1358.4958 935.81811,1359.9554 934.84545,1360.9525 C 933.87235,1361.9736 932.65663,1362.4842 931.19807,1362.4842 C 929.73885,1362.4842 928.52313,1361.9496 927.55047,1360.9045 C 926.5778,1359.8594 926.09125,1358.4238 926.09125,1356.5998 C 926.09125,1353.1241 927.79352,1349.9124 931.4409,1347.0193 C 935.0885,1344.1022 939.95161,1342.6425 946.27349,1342.6425 C 951.38009,1342.6425 955.27052,1343.4695 958.43157,1345.1233 C 960.86323,1346.3866 962.56507,1348.3328 963.78123,1350.9837 C 964.5104,1352.7335 964.75389,1356.2834 964.75389,1361.6333 L 964.75389,1380.4298 C 964.75389,1385.7295 964.99695,1388.9652 965.23979,1390.1565 C 965.23979,1391.3477 965.72634,1392.1267 966.21245,1392.539 C 966.699,1392.9274 967.18512,1393.1478 967.67167,1393.1478 C 968.40084,1393.1478 968.88739,1393.0016 969.3735,1392.7092 C 970.34617,1392.1747 971.80516,1390.691 974.2366,1388.2343 L 974.2366,1391.6641 C 969.86005,1397.7427 965.48284,1400.782 961.34935,1400.782 C 959.40424,1400.782 957.70197,1400.1013 956.48625,1398.7158 C 955.51358,1397.3544 954.78397,1395.0198 954.78397,1391.7121"
         style="fill:navy;fill-rule:nonzero;stroke:none;stroke-width:0.25;stroke-linecap:butt;stroke-linejoin:miter;stroke-miterlimit:10;stroke-dasharray:none"
         id="path620" />
      <path
         d="M 994.66212,1354.2652 C 1001.2275,1346.5088 1007.3063,1342.6425 1013.3851,1342.6425 C 1016.3029,1342.6425 1018.9779,1343.3975 1021.1662,1344.9291 C 1023.3548,1346.4368 1025.0567,1348.9175 1026.2728,1352.3932 C 1027.2453,1354.8259 1027.7314,1358.522 1027.7314,1363.5293 L 1027.7314,1387.2132 C 1027.7314,1390.739 1027.9744,1393.1216 1028.461,1394.3631 C 1028.9471,1395.3842 1029.6767,1396.1631 1030.6494,1396.7456 C 1031.622,1397.3042 1033.3241,1397.5725 1035.999,1397.5725 L 1035.999,1399.7609 L 1008.522,1399.7609 L 1008.522,1397.5725 L 1009.7378,1397.5725 C 1012.4125,1397.5725 1014.1147,1397.1842 1015.0874,1396.4053 C 1016.3029,1395.6263 1017.0325,1394.4591 1017.2756,1392.9034 C 1017.5191,1392.3208 1017.5191,1390.3986 1017.5191,1387.2132 L 1017.5191,1364.4064 C 1017.5191,1359.3489 1017.0325,1355.6768 1015.5735,1353.3663 C 1014.3578,1351.0797 1012.1694,1349.9386 1009.0086,1349.9386 C 1004.1455,1349.9386 999.52522,1352.5634 994.66212,1357.8412 L 994.66212,1387.2132 C 994.66212,1390.9834 994.90517,1393.2918 995.39129,1394.1929 C 995.87784,1395.3602 996.60745,1396.2111 997.58011,1396.7696 C 998.55277,1397.3042 1000.7409,1397.5725 1003.6589,1397.5725 L 1003.6589,1399.7609 L 976.18215,1399.7609 L 976.18215,1397.5725 L 977.39787,1397.5725 C 980.31586,1397.5725 982.26097,1396.8678 983.23364,1395.4322 C 984.2063,1393.9987 984.69242,1391.2496 984.69242,1387.2132 L 984.69242,1366.5708 C 984.69242,1359.9074 984.44936,1355.847 984.2063,1354.3874 C 983.96325,1352.9277 983.4767,1351.9306 982.74709,1351.4201 C 982.26097,1350.8855 981.28853,1350.6193 980.31586,1350.6193 C 979.10014,1350.6193 977.88399,1350.9357 976.18215,1351.5423 L 975.20927,1349.3779 L 991.9874,1342.6425 L 994.66212,1342.6425"
         style="fill:navy;fill-rule:nonzero;stroke:none;stroke-width:0.25;stroke-linecap:butt;stroke-linejoin:miter;stroke-miterlimit:10;stroke-dasharray:none"
         id="path622" />
      <path
         d="M 1037.4578,1344.2484 L 1063.2325,1344.2484 L 1063.2325,1346.4128 L 1062.0168,1346.4128 C 1060.0717,1346.4128 1058.856,1346.8011 1057.8833,1347.604 C 1056.9102,1348.3808 1056.4241,1349.3779 1056.4241,1350.5692 C 1056.4241,1352.151 1057.1537,1354.3394 1058.6125,1357.1605 L 1071.9861,1385.2451 L 1084.3872,1354.4856 C 1085.1168,1352.8077 1085.3599,1351.1539 1085.3599,1349.5241 C 1085.3599,1348.7953 1085.3599,1348.2346 1085.1168,1347.8702 C 1084.6303,1347.4339 1084.1442,1347.0695 1083.4146,1346.8011 C 1082.9287,1346.5328 1081.7125,1346.4128 1079.7672,1346.4128 L 1079.7672,1344.2484 L 1097.761,1344.2484 L 1097.761,1346.4128 C 1096.3018,1346.5568 1095.0861,1346.8993 1094.3567,1347.3837 C 1093.6275,1347.8702 1092.6549,1348.7713 1091.6822,1350.1088 C 1091.4387,1350.6673 1090.7095,1352.223 1089.7369,1354.7757 L 1067.123,1410.2403 C 1064.9348,1415.6142 1062.0168,1419.6746 1058.6125,1422.4237 C 1054.9651,1425.1706 1051.561,1426.5321 1048.4002,1426.5321 C 1045.9683,1426.5321 1044.023,1425.8514 1042.5644,1424.4659 C 1040.8621,1423.1044 1040.1325,1421.5226 1040.1325,1419.7488 C 1040.1325,1418.0469 1040.6191,1416.6855 1041.8348,1415.6644 C 1043.0505,1414.6171 1044.5095,1414.1065 1046.4549,1414.1065 C 1047.6706,1414.1065 1049.6157,1414.5451 1051.8041,1415.396 C 1053.5063,1415.9785 1054.479,1416.2709 1054.9651,1416.2709 C 1056.1811,1416.2709 1057.3968,1415.6644 1058.856,1414.4229 C 1060.3148,1413.1596 1061.7738,1410.7749 1063.2325,1407.201 L 1067.123,1397.5245 L 1047.184,1355.7008 C 1046.6979,1354.4354 1045.7252,1352.8557 1044.266,1350.9837 C 1043.2936,1349.5721 1042.5644,1348.6011 1041.8348,1348.1146 C 1040.8621,1347.4579 1039.4029,1346.8993 1037.4578,1346.4128"
         style="fill:navy;fill-rule:nonzero;stroke:none;stroke-width:0.25;stroke-linecap:butt;stroke-linejoin:miter;stroke-miterlimit:10;stroke-dasharray:none"
         id="path624" />
    </g>
  </g>
</svg>
