<?xml version="1.0" encoding="utf-8"?>
<!-- Generator: Adobe Illustrator 14.0.0, SVG Export Plug-In . SVG Version: 6.00 Build 43363)  -->
<!DOCTYPE svg PUBLIC "-//W3C//DTD SVG 1.1//EN" "http://www.w3.org/Graphics/SVG/1.1/DTD/svg11.dtd">
<svg version="1.1" id="Layer_1" xmlns="http://www.w3.org/2000/svg" xmlns:xlink="http://www.w3.org/1999/xlink" x="0px" y="0px"
	 width="250px" height="58px" viewBox="0 0 250 58" enable-background="new 0 0 250 58" xml:space="preserve">
<g>
	<path fill-rule="evenodd" clip-rule="evenodd" fill="#E31B23" d="M190.294,22.89c-0.023,0.017-0.056,0.028-0.093,0.028
		c-0.089,0-0.164-0.078-0.164-0.168c0-0.028,0.005-0.052,0.014-0.073l0.01-0.012c4.63-10.563,15.186-17.94,27.458-17.94
		c12.276,0,22.832,7.382,27.463,17.955l0.004,0.009c0.01,0.021,0.015,0.044,0.015,0.07c0,0.091-0.075,0.166-0.169,0.166
		c-0.027,0-0.056-0.009-0.079-0.021l-0.019-0.009c-2.133-1.253-5.098-2.028-8.386-2.028c-3.793,0-7.165,1.036-9.307,2.643
		l-0.01,0.007c-0.028,0.021-0.065,0.037-0.103,0.037c-0.038,0-0.075-0.016-0.104-0.035l-0.009-0.009
		c-2.143-1.606-5.515-2.643-9.313-2.643c-3.793,0-7.164,1.036-9.307,2.643l-0.009,0.007c-0.028,0.021-0.066,0.037-0.104,0.037
		s-0.065-0.014-0.094-0.03l-0.019-0.012c-2.137-1.606-5.514-2.645-9.312-2.645c-3.27,0-6.22,0.767-8.349,2.009L190.294,22.89z"/>
	<path fill-rule="evenodd" clip-rule="evenodd" fill="#E31B23" d="M219.066,23.119v-0.028c0-0.073-0.056-0.133-0.131-0.14h-0.005
		c-0.477-0.059-0.973-0.089-1.473-0.089c-0.431,0-0.847,0.021-1.249,0.061l-0.014,0.002c-0.07,0.007-0.122,0.068-0.122,0.143
		l-0.005,0.007l0.005,24.483c0,1.394-1.137,2.528-2.53,2.528c-1.099,0-2.034-0.706-2.381-1.684l-0.004-0.005
		c-0.201-0.594-0.758-1.024-1.422-1.024c-0.828,0-1.497,0.671-1.497,1.494c0,0.141,0.019,0.278,0.057,0.407l0.004,0.012
		c0.726,2.2,2.802,3.795,5.243,3.795c3.045,0,5.523-2.477,5.523-5.523V23.119z"/>
	<path d="M46.817,52.976h-5.02l-3.24-10.518h-4.149l-1.164,10.518h-4.981l2.948-26.798h9.818c5.823,0,8.605,1.391,7.851,8.205
		c-0.51,4.653-2.315,6.516-5.527,7.432L46.817,52.976z M39.489,38.211c2.344,0,3.949-0.091,4.378-4.013
		c0.437-3.954-1.447-3.768-3.635-3.768h-4.51l-0.859,7.78H39.489z"/>
	<path d="M178.368,52.976h-5.061l-3.241-10.518h-4.105l-1.165,10.518h-4.98l2.946-26.798h9.821c5.818,0,8.605,1.391,7.848,8.205
		c-0.505,4.653-2.311,6.516-5.528,7.432L178.368,52.976z M170.96,38.211c2.348,0,3.947-0.091,4.382-4.013
		c0.436-3.954-1.37-3.768-3.638-3.768h-4.43l-0.851,7.78H170.96z"/>
	<polygon points="73.542,26.178 78.813,26.178 82.459,45.762 90.166,26.178 95.259,26.178 84.125,53.123 78.961,53.123 	"/>
	<polygon points="99.842,26.178 115.641,26.178 115.145,30.646 104.442,30.646 103.74,37.019 112.423,37.019 111.92,41.543 
		103.247,41.543 102.473,48.493 113.527,48.493 113.042,52.976 96.889,52.976 	"/>
	<polygon points="141.416,26.178 157.215,26.178 156.724,30.646 146.019,30.646 145.313,37.019 153.992,37.019 153.496,41.543 
		144.821,41.543 144.049,48.493 155.101,48.493 154.619,52.976 138.47,52.976 	"/>
	<path d="M182.498,52.501l0.706-4.392c0.786,0.181,4.985,0.803,7.483,0.803c3.367,0,4.312-0.583,4.606-3.295
		c0.275-2.486-0.126-2.811-3.915-4.022c-6.005-1.94-7.361-2.928-6.753-8.498c0.589-5.345,3.362-7.249,9.442-7.249
		c2.97,0,6.216,0.405,7.39,0.732l-0.57,4.361c-1.403-0.224-4.893-0.664-7.343-0.664c-2.713,0-3.63,0.697-3.868,2.858
		c-0.28,2.527,0.206,2.787,3.854,3.954c5.753,1.903,7.559,2.895,6.932,8.495c-0.641,5.858-3.367,7.691-10.327,7.691
		C186.511,53.275,183.756,52.764,182.498,52.501"/>
	<path d="M54.743,52.976h-5.094L61.171,26.03h4.892l5.307,26.945h-5.235l-0.829-4.464h-8.715L54.743,52.976z M62.752,33.053
		l-4.413,11.252h6.186L62.752,33.053z"/>
	<path d="M135.607,48.493h-11.815l2.457-22.315h-5.091l-2.948,26.798h12.678C133.741,52.976,134.977,51.334,135.607,48.493"/>
	<path d="M5.493,26.178L5,30.646h8.339l-2.458,22.329h5.134l2.417-22.313h4.207c2.852,0,4.087-1.649,4.715-4.485H5.493z"/>
</g>
</svg>
