<?xml version="1.0" encoding="UTF-8" standalone="no"?>
<!-- Created with Inkscape (http://www.inkscape.org/) -->

<svg
   xmlns:dc="http://purl.org/dc/elements/1.1/"
   xmlns:cc="http://creativecommons.org/ns#"
   xmlns:rdf="http://www.w3.org/1999/02/22-rdf-syntax-ns#"
   xmlns:svg="http://www.w3.org/2000/svg"
   xmlns="http://www.w3.org/2000/svg"
   xmlns:sodipodi="http://sodipodi.sourceforge.net/DTD/sodipodi-0.dtd"
   xmlns:inkscape="http://www.inkscape.org/namespaces/inkscape"
   id="svg2985"
   version="1.1"
   inkscape:version="0.48.5 r10040"
   width="1000"
   height="73.408524"
   xml:space="preserve"
   sodipodi:docname="79D172C222884D9C8BEEAEDC5F3CB394.pdf"><metadata
     id="metadata2991"><rdf:RDF><cc:Work
         rdf:about=""><dc:format>image/svg+xml</dc:format><dc:type
           rdf:resource="http://purl.org/dc/dcmitype/StillImage" /><dc:title></dc:title></cc:Work></rdf:RDF></metadata><defs
     id="defs2989" /><sodipodi:namedview
     pagecolor="#ffffff"
     bordercolor="#666666"
     borderopacity="1"
     objecttolerance="10"
     gridtolerance="10"
     guidetolerance="10"
     inkscape:pageopacity="0"
     inkscape:pageshadow="2"
     inkscape:window-width="1059"
     inkscape:window-height="1034"
     id="namedview2987"
     showgrid="false"
     fit-margin-left="0.5"
     fit-margin-bottom="0.5"
     fit-margin-top="0.5"
     fit-margin-right="0.5"
     inkscape:zoom="0.19485085"
     inkscape:cx="495.24874"
     inkscape:cy="-486.91971"
     inkscape:window-x="854"
     inkscape:window-y="-9"
     inkscape:window-maximized="0"
     inkscape:current-layer="g2993" /><g
     id="g2993"
     inkscape:groupmode="layer"
     inkscape:label="79D172C222884D9C8BEEAEDC5F3CB394"
     transform="matrix(1.25,0,0,-1.25,-167.5,640.42727)"><g
       id="g3119"
       transform="matrix(2.3289971,0,0,2.3289971,753.2611,482.51261)"
       style="fill:#003b70;fill-opacity:1"><path
         d="m 0,0 c 2.641,0 3.695,1.195 3.695,3.477 0,2.414 -1.223,3.542 -3.634,3.542 l -3.517,0 0,-17.719 c 0,-0.549 -0.452,-1.01 -1.008,-1.01 l -2.17,0 c -0.547,0 -1.004,0.461 -1.004,1.01 l 0,19.156 c 0,0.552 0.457,1.038 1.004,1.038 l 7.12,0 c 4.368,0 7.087,-1.985 7.087,-6.017 0,-3.176 -2.013,-4.704 -4.338,-5.317 l 4.584,-8.583 c 0.094,-0.187 0.184,-0.372 0.184,-0.582 0,-0.368 -0.242,-0.705 -0.581,-0.705 l -2.657,0 c -0.307,0 -0.643,0.247 -0.795,0.584 L -0.926,-1.56 C -1.05,-1.324 -1.27,-0.938 -1.27,-0.577 -1.27,-0.254 -1.112,0 -0.55,0 -0.441,0 -0.026,0 0,0"
         style="fill:#003b70;fill-opacity:1;fill-rule:nonzero;stroke:none"
         id="path3121"
         inkscape:connector-curvature="0" /></g><g
       id="g3123"
       transform="matrix(2.3289971,0,0,2.3289971,800.51412,500.1175)"
       style="fill:#003b70;fill-opacity:1"><path
         d="m 0,0 c -4.393,0 -5.148,-3.951 -5.148,-8.668 0,-4.762 0.802,-8.668 5.084,-8.668 4.201,0 5.209,3.743 5.209,8.668 C 5.145,-3.951 4.324,0 0,0 z m 0,-19.716 c -4.091,0 -9.305,1.406 -9.305,11.048 0,9.582 5.175,11.05 9.305,11.05 4.123,0 9.301,-1.468 9.301,-11.05 0,-9.461 -5.062,-11.048 -9.301,-11.048"
         style="fill:#003b70;fill-opacity:1;fill-rule:nonzero;stroke:none"
         id="path3125"
         inkscape:connector-curvature="0" /></g><g
       id="g3127"
       transform="matrix(2.3289971,0,0,2.3289971,850.1334,454.19899)"
       style="fill:#003b70;fill-opacity:1"><path
         d="m 0,0 c -5.683,0 -8.006,3.208 -8.006,7.088 l 0,13.525 c 0,0.552 0.458,1.038 1.006,1.038 l 2.137,0 c 0.552,0 1.013,-0.486 1.013,-1.038 l 0,-13.767 c 0,-3.513 1.686,-4.466 4.047,-4.466 3.104,0 4.051,1.828 4.051,4.466 l 0,13.767 c 0,0.552 0.457,1.038 1.003,1.038 l 1.744,0 c 0.55,0 1.009,-0.486 1.009,-1.038 l 0,-13.525 C 8.004,2.598 5.188,0 0,0"
         style="fill:#003b70;fill-opacity:1;fill-rule:nonzero;stroke:none"
         id="path3129"
         inkscape:connector-curvature="0" /></g><g
       id="g3131"
       transform="matrix(2.3289971,0,0,2.3289971,894.66383,479.93674)"
       style="fill:#003b70;fill-opacity:1"><path
         d="m 0,0 1.047,0 c 2.149,0 3.826,1.092 3.826,3.97 0,3.151 -1.626,4.185 -3.927,4.185 l -3.285,0 0,-17.749 c 0,-0.549 -0.4,-1.009 -0.948,-1.009 l -2.11,0 c -0.549,0 -1.004,0.46 -1.004,1.009 l 0,19.157 c 0,0.551 0.455,1.037 1.004,1.037 l 7.639,0 c 4.108,0 6.508,-2.506 6.508,-6.63 0,-3.727 -2.187,-6.235 -6.518,-6.235 -0.823,0 -1.634,0.08 -2.136,0.164 -0.875,0.149 -1.271,0.625 -1.271,1.12 C -1.175,-0.48 -0.782,0 0,0"
         style="fill:#003b70;fill-opacity:1;fill-rule:nonzero;stroke:none"
         id="path3133"
         inkscape:connector-curvature="0" /></g><g
       id="g3135"
       transform="matrix(2.3289971,0,0,2.3289971,656.17686,455.24005)"
       style="fill:#003b70;fill-opacity:1"><path
         d="m 0,0 -2.016,0 c -0.581,0 -1.041,0.461 -1.041,1.04 l 0,8.455 -8.181,0 0,-8.455 c 0,-0.579 -0.458,-1.04 -1.04,-1.04 l -2.017,0 c -0.58,0 -1.039,0.461 -1.039,1.04 l 0,19.126 c 0,0.551 0.459,1.038 1.01,1.038 l 2.076,0 c 0.552,0 1.01,-0.487 1.01,-1.038 l 0,-7.688 8.181,0 0,7.688 c 0,0.551 0.46,1.038 1.009,1.038 l 2.077,0 c 0.551,0 1.012,-0.487 1.012,-1.038 l 0,-19.126 C 1.041,0.461 0.58,0 0,0"
         style="fill:#003b70;fill-opacity:1;fill-rule:nonzero;stroke:none"
         id="path3137"
         inkscape:connector-curvature="0" /></g><g
       id="g3139"
       transform="matrix(2.3289971,0,0,2.3289971,154.95573,454.38764)"
       style="fill:#003b70;fill-opacity:1"><path
         d="m 0,0 c -6.503,0 -8.826,3.665 -8.826,8.021 l 0,15.142 c 0,0.617 0.526,1.187 1.156,1.187 l 1.837,0 c 0.629,0 1.156,-0.57 1.156,-1.187 l 0,-15.573 c 0,-3.942 2.18,-5.001 4.768,-5.001 3.429,0 4.769,1.747 4.769,5.001 l 0,15.573 c 0,0.617 0.525,1.187 1.155,1.187 l 1.617,0 c 0.63,0 1.153,-0.57 1.153,-1.187 l 0,-15.142 C 8.785,2.983 5.722,0 0,0"
         style="fill:#003b70;fill-opacity:1;fill-rule:nonzero;stroke:none"
         id="path3141"
         inkscape:connector-curvature="0" /></g><g
       id="g3143"
       transform="matrix(2.3289971,0,0,2.3289971,365.28745,498.89943)"
       style="fill:#003b70;fill-opacity:1"><path
         d="m 0,0 -3.627,0 0,-16.286 3.627,0 c 4.784,0 5.949,3.629 5.949,8.023 C 5.949,-3.874 4.825,0 0,0 z m 0.977,-18.745 -7.654,0 c -0.549,0 -1.01,0.476 -1.01,1.025 l 0,19.124 c 0,0.549 0.461,1.054 1.01,1.054 l 7.654,0 c 5.033,0 9.031,-2.701 9.031,-10.721 0,-8.145 -4.304,-10.482 -9.031,-10.482"
         style="fill:#003b70;fill-opacity:1;fill-rule:nonzero;stroke:none"
         id="path3145"
         inkscape:connector-curvature="0" /></g><g
       id="g3147"
       transform="matrix(2.3289971,0,0,2.3289971,439.38682,455.23539)"
       style="fill:#003b70;fill-opacity:1"><path
         d="M 0,0 -1.812,0 C -2.466,0 -2.98,0.512 -2.98,1.163 l 0,9.687 -9.728,0 0,-9.687 C -12.708,0.512 -13.223,0 -13.881,0 l -1.81,0 c -0.654,0 -1.165,0.512 -1.165,1.163 l 0,21.496 c 0,0.618 0.511,1.167 1.132,1.167 l 1.883,0 c 0.618,0 1.133,-0.549 1.133,-1.167 l 0,-8.756 9.728,0 0,8.756 c 0,0.618 0.514,1.167 1.134,1.167 l 1.879,0 c 0.617,0 1.134,-0.549 1.134,-1.167 l 0,-21.496 C 1.167,0.512 0.65,0 0,0"
         style="fill:#003b70;fill-opacity:1;fill-rule:nonzero;stroke:none"
         id="path3149"
         inkscape:connector-curvature="0" /></g><g
       id="g3151"
       transform="matrix(2.3289971,0,0,2.3289971,572.18624,455.23539)"
       style="fill:#003b70;fill-opacity:1"><path
         d="m 0,0 -10.237,0 c -0.579,0 -1.039,0.46 -1.039,1.042 l 0,19.126 c 0,0.55 0.46,1.037 1.009,1.037 l 2.139,0 c 0.551,0 1.009,-0.487 1.009,-1.037 l 0,-17.177 7.119,0 c 0.55,0 1.007,-0.491 1.007,-1.038 l 0,-0.941 C 1.007,0.46 0.55,0 0,0"
         style="fill:#003b70;fill-opacity:1;fill-rule:nonzero;stroke:none"
         id="path3153"
         inkscape:connector-curvature="0" /></g><g
       id="g3155"
       transform="matrix(2.3289971,0,0,2.3289971,249.82044,455.23539)"
       style="fill:#003b70;fill-opacity:1"><path
         d="M 0,0 -2.071,0 C -2.652,0 -3.11,0.479 -3.11,1.057 l 0,19.092 c 0,0.55 0.458,1.056 1.01,1.056 l 2.131,0 c 0.551,0 1.008,-0.506 1.008,-1.056 l 0,-19.092 C 1.039,0.479 0.582,0 0,0"
         style="fill:#003b70;fill-opacity:1;fill-rule:nonzero;stroke:none"
         id="path3157"
         inkscape:connector-curvature="0" /></g><g
       id="g3159"
       transform="matrix(2.3289971,0,0,2.3289971,295.50837,497.65342)"
       style="fill:#003b70;fill-opacity:1"><path
         d="m 0,0 -4.82,0 0,-17.156 c 0,-0.578 -0.458,-1.057 -1.037,-1.057 l -2.075,0 c -0.577,0 -1.037,0.479 -1.037,1.057 l 0,17.156 -4.855,0 c -0.55,0 -1.008,0.454 -1.008,1.004 l 0,0.944 c 0,0.548 0.458,1.044 1.008,1.044 L 0,2.992 c 0.549,0 1.005,-0.496 1.005,-1.044 l 0,-0.944 C 1.005,0.454 0.549,0 0,0"
         style="fill:#003b70;fill-opacity:1;fill-rule:nonzero;stroke:none"
         id="path3161"
         inkscape:connector-curvature="0" /></g><g
       id="g3163"
       transform="matrix(2.3289971,0,0,2.3289971,609.32209,497.65342)"
       style="fill:#003b70;fill-opacity:1"><path
         d="m 0,0 -5.15,0 0,-17.156 c 0,-0.578 -0.458,-1.057 -1.037,-1.057 l -2.076,0 c -0.576,0 -1.035,0.479 -1.035,1.057 l 0,17.156 -5.185,0 c -0.552,0 -1.008,0.454 -1.008,1.004 l 0,0.944 c 0,0.548 0.456,1.044 1.008,1.044 L 0,2.992 c 0.55,0 1.004,-0.496 1.004,-1.044 l 0,-0.944 C 1.004,0.454 0.55,0 0,0"
         style="fill:#003b70;fill-opacity:1;fill-rule:nonzero;stroke:none"
         id="path3165"
         inkscape:connector-curvature="0" /></g><g
       id="g3167"
       transform="matrix(2.3289971,0,0,2.3289971,336.46146,455.23539)"
       style="fill:#003b70;fill-opacity:1"><path
         d="m 0,0 -11.958,0 c -0.549,0 -1.007,0.354 -1.007,0.902 l 0,19.26 c 0,0.547 0.458,1.043 1.007,1.043 l 11.527,0 c 0.55,0 1.008,-0.496 1.008,-1.043 l 0,-0.845 c 0,-0.549 -0.458,-1.002 -1.008,-1.002 -0.548,0 -8.387,0 -8.387,0 l 0,-5.879 7.534,0 c 0.549,0 1.008,-0.488 1.008,-1.038 l 0,-0.843 c 0,-0.547 -0.459,-1.007 -1.008,-1.007 l -7.534,0 0,-6.645 L 0,2.894 c 0.55,0 1.005,-0.488 1.005,-1.036 l 0,-0.956 C 1.005,0.354 0.55,0 0,0"
         style="fill:#003b70;fill-opacity:1;fill-rule:nonzero;stroke:none"
         id="path3169"
         inkscape:connector-curvature="0" /></g><g
       id="g3171"
       transform="matrix(2.3289971,0,0,2.3289971,485.20751,455.23539)"
       style="fill:#003b70;fill-opacity:1"><path
         d="m 0,0 -11.957,0 c -0.549,0 -1.01,0.354 -1.01,0.902 l 0,19.26 c 0,0.547 0.461,1.043 1.01,1.043 l 11.526,0 c 0.547,0 1.006,-0.496 1.006,-1.043 l 0,-0.845 c 0,-0.549 -0.459,-1.002 -1.006,-1.002 -0.548,0 -8.387,0 -8.387,0 l 0,-5.879 7.532,0 c 0.551,0 1.008,-0.488 1.008,-1.038 l 0,-0.843 c 0,-0.547 -0.457,-1.007 -1.008,-1.007 l -7.532,0 0,-6.645 L 0,2.894 c 0.548,0 1.002,-0.488 1.002,-1.036 l 0,-0.956 C 1.002,0.354 0.548,0 0,0"
         style="fill:#003b70;fill-opacity:1;fill-rule:nonzero;stroke:none"
         id="path3173"
         inkscape:connector-curvature="0" /></g><g
       id="g3175"
       transform="matrix(2.3289971,0,0,2.3289971,225.36597,455.23539)"
       style="fill:#003b70;fill-opacity:1"><path
         d="M 0,0 -3.129,0 C -4.1,0 -4.556,0.446 -4.8,0.996 c -1.556,3.302 -7.576,16.807 -7.576,16.807 l 0,-16.776 C -12.376,0.479 -12.835,0 -13.385,0 l -1.404,0 c -0.552,0 -1.008,0.479 -1.008,1.027 l 0,19.158 c 0,0.55 0.456,1.02 1.008,1.02 l 3.059,0 c 0.905,0 1.462,-0.314 1.768,-0.991 1.619,-3.542 7.545,-16.711 7.545,-16.711 l 0,16.682 c 0,0.55 0.459,1.02 1.008,1.02 l 1.409,0 c 0.548,0 1.008,-0.47 1.008,-1.02 l 0,-19.158 C 1.008,0.479 0.548,0 0,0"
         style="fill:#003b70;fill-opacity:1;fill-rule:nonzero;stroke:none"
         id="path3177"
         inkscape:connector-curvature="0" /></g><g
       id="g3179"
       transform="matrix(2.3289971,0,0,2.3289971,722.33435,456.84473)"
       style="fill:#003b70;fill-opacity:1"><path
         d="m 0,0 c -1.115,-0.493 -2.863,-1.215 -6.524,-1.215 -5.977,0 -11.331,2.511 -11.331,12.437 0,7.791 3.299,12.435 11.331,12.435 3.704,0 5.753,-0.986 6.236,-1.19 0.736,-0.312 0.785,-0.464 0.785,-0.806 0,-0.164 -0.092,-0.67 -0.114,-0.795 C 0.264,20.262 0.095,19.273 0,18.74 c -0.05,-0.295 -0.089,-0.703 -0.543,-0.703 -0.368,0 -0.689,0.429 -0.889,0.635 -0.315,0.323 -2.093,2.166 -5.092,2.166 -5.697,0 -6.663,-5.463 -6.663,-9.616 0,-5.733 1.858,-9.618 6.663,-9.618 1.835,0 2.797,0.297 3.095,0.378 l 0,7.86 c 0,0.475 0.278,0.626 0.767,0.626 l 2.637,0 c 0.555,0 0.747,-0.224 0.747,-0.665 l 0,-8.596 C 0.722,0.39 0.673,0.298 0,0"
         style="fill:#003b70;fill-opacity:1;fill-rule:nonzero;stroke:none"
         id="path3181"
         inkscape:connector-curvature="0" /></g><g
       id="g3183"
       transform="matrix(2.3289971,0,0,2.3289971,507.85235,472.84028)"
       style="fill:#003b70;fill-opacity:1"><path
         d="M 0,0 3.155,10.507 6.133,0 0,0 z M 12.389,-6.211 6.297,12.672 c -0.214,0.641 -0.729,0.976 -1.491,0.976 l -2.691,0 c -0.782,0 -1.213,-0.335 -1.432,-0.976 L -5.392,-6.332 c -0.064,-0.185 -0.127,-0.31 -0.127,-0.49 0,-0.428 0.369,-0.735 0.735,-0.735 l 1.37,0 c 0.729,0 1.262,0.337 1.475,0.98 l 1.199,3.971 7.723,0 1.252,-3.971 c 0.18,-0.55 0.583,-0.98 1.516,-0.98 l 1.993,0 c 0.463,0 0.764,0.307 0.764,0.767 0,0.213 -0.061,0.363 -0.119,0.579"
         style="fill:#003b70;fill-opacity:1;fill-rule:nonzero;stroke:none"
         id="path3185"
         inkscape:connector-curvature="0" /></g><g
       id="g3187"
       transform="matrix(2.3289971,0,0,2.3289971,925.13875,499.15096)"
       style="fill:#003b70;fill-opacity:1"><path
         d="m 0,0 0.694,0 c 0.449,0 0.734,0.095 0.734,0.558 0,0.406 -0.361,0.523 -0.734,0.523 L 0,1.081 0,0 z m -0.581,1.539 1.368,0 c 0.82,0 1.225,-0.331 1.225,-1.007 0,-0.573 -0.364,-0.987 -0.921,-0.987 l 1.015,-1.581 -0.617,0 -0.997,1.581 -0.492,0 0,-1.581 -0.581,0 0,3.575 z m 1.175,-4.386 c 1.403,0 2.457,1.134 2.457,2.594 0,1.461 -1.054,2.593 -2.457,2.593 -1.422,0 -2.477,-1.132 -2.477,-2.593 0,-1.46 1.055,-2.594 2.477,-2.594 z m -0.01,5.643 c 1.683,0 3.049,-1.367 3.049,-3.049 0,-1.682 -1.366,-3.049 -3.049,-3.049 -1.68,0 -3.049,1.367 -3.049,3.049 0,1.682 1.369,3.049 3.049,3.049"
         style="fill:#003b70;fill-opacity:1;fill-rule:nonzero;stroke:none"
         id="path3189"
         inkscape:connector-curvature="0" /></g></g></svg>